<?xml version="1.0" standalone="no"?>
<!DOCTYPE svg PUBLIC "-//W3C//DTD SVG 20010904//EN"
 "http://www.w3.org/TR/2001/REC-SVG-20010904/DTD/svg10.dtd">
<svg version="1.0" xmlns="http://www.w3.org/2000/svg"
 width="1741.000000pt" height="1741.000000pt" viewBox="0 0 1741.000000 1741.000000"
 preserveAspectRatio="xMidYMid meet">
<metadata>
Created by potrace 1.11, written by Peter Selinger 2001-2013
</metadata>
<g transform="translate(0.000000,1741.000000) scale(0.100000,-0.100000)"
fill="#000000" stroke="none">
<path d="M8873 13329 c-26 -10 -51 -54 -59 -106 -3 -21 -12 -49 -19 -63 -7
-14 -16 -41 -20 -60 -4 -19 -13 -44 -19 -55 -7 -11 -16 -38 -20 -60 -4 -22
-11 -44 -16 -50 -4 -5 -12 -30 -18 -55 -12 -53 -39 -132 -57 -175 -8 -17 -16
-41 -18 -55 -2 -14 -11 -41 -20 -60 -8 -19 -17 -48 -20 -65 -3 -16 -12 -46
-21 -66 -8 -20 -17 -47 -20 -60 -2 -13 -11 -40 -20 -60 -8 -20 -17 -47 -19
-60 -2 -13 -11 -41 -21 -61 -9 -21 -16 -43 -16 -50 0 -15 -36 -128 -58 -178
-8 -19 -16 -48 -19 -65 -3 -16 -9 -35 -13 -40 -5 -6 -14 -33 -21 -60 -6 -28
-15 -54 -19 -60 -4 -5 -13 -35 -20 -65 -7 -30 -17 -62 -21 -70 -10 -18 -59
-162 -64 -189 -2 -11 -8 -29 -14 -40 -6 -10 -14 -37 -17 -58 -3 -21 -9 -42
-13 -48 -5 -5 -25 -64 -46 -130 -21 -66 -42 -124 -46 -129 -5 -6 -9 -19 -9
-30 0 -24 -34 -131 -61 -194 -11 -23 -19 -50 -19 -60 0 -9 -9 -39 -19 -67 -11
-27 -41 -117 -67 -200 -26 -82 -51 -154 -56 -159 -4 -6 -8 -18 -8 -27 0 -16
-42 -155 -59 -194 -5 -11 -21 -60 -36 -110 -15 -49 -33 -103 -40 -120 -7 -16
-16 -44 -19 -62 -3 -18 -12 -48 -20 -67 -13 -32 -19 -36 -53 -37 -21 0 -312
-1 -646 -1 -545 0 -609 -2 -624 -16 -19 -19 -26 -13 167 -151 69 -50 132 -97
141 -106 9 -8 19 -15 23 -15 9 0 90 -62 94 -72 2 -5 8 -8 13 -8 5 0 28 -15 52
-32 24 -18 56 -42 71 -53 15 -11 46 -34 69 -51 108 -80 166 -121 207 -149 24
-16 51 -36 60 -43 13 -12 93 -70 233 -170 21 -15 50 -37 65 -49 15 -13 30 -23
34 -23 4 0 13 -6 20 -13 7 -7 47 -37 88 -66 41 -30 77 -57 80 -61 7 -9 41 -22
62 -25 15 -1 31 23 31 45 0 3 10 33 23 68 13 34 24 70 24 80 0 10 5 23 12 30
6 6 13 22 15 34 5 37 44 159 64 204 11 23 19 50 19 60 0 10 7 32 15 48 9 16
18 46 21 65 3 20 12 47 19 61 7 14 16 44 20 65 4 22 13 49 20 60 7 11 16 36
19 55 4 19 13 49 20 65 8 17 23 62 35 100 43 143 112 351 121 367 6 10 10 24
10 32 0 12 43 152 57 186 7 16 7 17 15 40 3 8 13 38 22 65 10 28 22 70 27 94
5 24 13 49 18 55 5 6 13 29 17 51 4 22 13 49 20 60 6 11 15 36 19 55 4 19 11
40 15 45 4 6 13 33 19 60 7 28 18 64 26 80 7 17 16 44 19 60 9 42 11 47 24 72
7 12 12 28 12 37 0 8 5 27 12 43 6 15 11 31 10 36 -1 4 2 7 8 7 5 0 10 11 10
25 0 13 9 47 20 75 11 28 20 58 20 66 0 9 6 30 14 47 15 34 40 108 57 167 6
19 13 42 16 50 4 8 7 17 8 20 1 3 7 25 15 50 17 61 50 161 60 185 10 23 19 54
25 86 3 12 8 25 12 28 8 6 13 20 20 61 3 14 7 32 10 40 4 8 7 17 7 20 1 3 4
10 8 15 3 6 9 27 13 48 4 20 11 40 16 43 5 3 7 10 4 15 -4 5 -1 9 4 9 6 0 11
12 11 28 0 15 7 40 15 56 9 17 20 50 26 75 23 108 49 132 63 59 2 -15 10 -36
16 -48 11 -21 17 -40 55 -175 9 -33 20 -64 24 -70 5 -5 14 -32 20 -60 7 -27
16 -54 21 -60 5 -6 12 -26 15 -45 3 -19 12 -48 20 -65 7 -16 16 -48 20 -69 3
-21 13 -48 20 -60 7 -12 16 -35 18 -52 3 -17 11 -44 20 -60 8 -16 18 -47 21
-68 4 -22 14 -49 22 -60 8 -11 14 -28 14 -38 0 -19 45 -164 59 -188 8 -15 22
-70 23 -87 0 -5 3 -12 8 -18 4 -5 15 -35 23 -65 17 -60 29 -97 58 -175 11 -28
19 -57 19 -65 0 -8 6 -27 14 -42 8 -15 17 -42 21 -60 3 -18 12 -49 20 -68 17
-45 42 -122 60 -185 8 -27 18 -59 23 -70 12 -28 52 -155 57 -182 6 -37 38 -72
65 -73 14 0 695 -1 1514 -1 1601 -1 1528 -3 1512 47 -3 11 -6 24 -7 29 -1 6
-12 28 -25 51 -13 22 -21 43 -18 47 4 3 -3 18 -15 33 -11 15 -21 31 -21 37 0
13 -106 226 -125 252 -15 19 -35 19 -1240 20 -819 0 -1227 3 -1234 10 -6 6
-12 19 -14 30 -2 11 -10 34 -16 50 -7 17 -15 46 -18 65 -3 19 -11 41 -16 48
-6 8 -13 24 -15 35 -6 34 -7 40 -24 78 -9 20 -19 51 -23 70 -4 19 -12 43 -18
54 -6 11 -12 29 -14 40 -4 24 -39 135 -58 185 -8 19 -17 46 -20 60 -3 14 -12
41 -20 60 -7 19 -25 76 -40 125 -14 50 -32 104 -40 120 -8 17 -16 41 -18 55
-2 14 -11 42 -20 64 -9 21 -17 45 -17 53 0 7 -7 30 -16 51 -15 34 -33 99 -36
130 -1 6 -5 12 -9 12 -5 0 -11 17 -14 38 -4 20 -13 51 -20 67 -14 31 -53 147
-60 177 -8 35 -87 274 -97 292 -5 10 -12 30 -14 44 -3 14 -14 52 -25 84 -10
31 -19 66 -19 76 0 11 -7 25 -15 32 -8 7 -15 23 -15 37 0 13 -9 43 -20 65 -11
23 -20 49 -20 57 0 9 -9 41 -21 71 -11 30 -22 63 -23 75 -4 34 -37 92 -60 104
-28 15 -53 19 -159 26 -50 3 -95 9 -100 12 -6 3 -31 7 -56 9 -25 1 -66 5 -91
7 -25 3 -55 1 -67 -4z"/>
<path d="M8107 13073 c-1 0 -27 -4 -57 -8 -70 -9 -82 -11 -100 -18 -8 -3 -50
-8 -93 -11 -82 -7 -117 -21 -134 -59 -13 -27 -53 -154 -53 -168 0 -5 -7 -26
-16 -47 -10 -20 -19 -48 -21 -62 -2 -13 -12 -45 -22 -70 -30 -77 -53 -144 -58
-175 -3 -16 -11 -42 -19 -56 -7 -15 -16 -41 -19 -59 -3 -18 -12 -45 -20 -60
-8 -15 -17 -42 -20 -60 -3 -18 -13 -46 -21 -62 -9 -17 -17 -46 -19 -64 -2 -19
-10 -46 -19 -59 -9 -13 -16 -35 -16 -47 -1 -13 -9 -41 -20 -63 -11 -22 -19
-48 -20 -58 0 -11 -6 -33 -14 -50 -22 -53 -66 -193 -66 -214 0 -10 -5 -24 -12
-31 -6 -6 -13 -17 -14 -24 -2 -7 -6 -24 -9 -38 -3 -14 -7 -29 -9 -35 -1 -5 -7
-20 -14 -32 -7 -12 -12 -29 -12 -38 0 -8 -7 -32 -17 -53 -9 -20 -18 -50 -20
-65 -2 -16 -13 -49 -24 -73 -10 -25 -19 -54 -19 -63 0 -10 -3 -21 -7 -25 -5
-4 -8 -11 -9 -14 0 -4 -3 -14 -6 -22 -15 -38 -40 -119 -49 -155 -5 -22 -16
-54 -24 -70 -7 -17 -16 -42 -19 -55 -5 -28 -38 -120 -48 -135 -4 -7 -457 -10
-1365 -10 l-1358 0 -27 -26 c-16 -14 -28 -30 -28 -34 0 -14 -64 -150 -72 -153
-5 -2 -8 -9 -8 -17 0 -12 -35 -98 -67 -162 -19 -39 -20 -78 -2 -95 8 -8 68
-53 134 -100 66 -48 125 -91 130 -95 16 -12 133 -98 205 -150 36 -26 109 -79
163 -120 54 -40 100 -73 103 -73 6 0 132 -94 161 -120 12 -11 25 -20 27 -20
11 0 96 -64 96 -72 0 -4 4 -8 10 -8 7 0 149 -98 205 -143 6 -4 33 -24 62 -45
29 -20 89 -64 135 -98 46 -34 135 -98 198 -144 63 -45 117 -86 118 -91 2 -5 8
-9 14 -9 8 0 32 -16 93 -63 51 -38 92 -68 240 -173 93 -67 178 -129 188 -138
9 -9 21 -16 26 -16 5 0 11 -4 13 -8 2 -5 40 -35 86 -68 46 -32 116 -83 155
-111 40 -29 95 -69 122 -88 28 -20 77 -56 110 -81 33 -25 75 -54 93 -65 17
-12 32 -25 32 -30 0 -5 5 -9 10 -9 11 0 55 -30 97 -64 29 -25 29 -33 -8 -136
-16 -47 -32 -96 -35 -108 -3 -13 -12 -43 -20 -65 -8 -23 -20 -59 -25 -81 -5
-21 -16 -51 -24 -67 -8 -15 -15 -35 -15 -44 0 -9 -7 -32 -17 -53 -9 -20 -18
-50 -20 -67 -3 -16 -11 -42 -19 -58 -8 -15 -17 -41 -19 -57 -2 -16 -10 -43
-18 -62 -18 -40 -44 -118 -59 -173 -5 -22 -16 -54 -24 -72 -8 -17 -14 -37 -14
-43 0 -7 -11 -44 -25 -82 -30 -82 -31 -108 -7 -109 30 -2 43 2 62 19 28 26 43
37 75 58 17 10 36 24 42 30 7 7 29 22 49 34 19 13 50 36 67 51 17 16 34 29 38
29 5 0 48 31 94 68 6 4 33 23 60 42 28 19 55 38 60 42 10 8 122 90 243 178 35
25 92 66 127 93 35 26 68 47 74 47 6 0 11 4 11 9 0 5 17 20 38 32 20 13 48 34
62 46 14 13 28 23 31 23 3 0 17 9 30 20 13 11 29 23 34 28 6 4 33 23 60 42 52
36 123 88 165 122 14 11 35 24 47 28 16 7 20 14 16 32 -6 23 -50 68 -66 68 -5
0 -14 6 -21 13 -7 6 -25 21 -41 32 -15 11 -48 36 -74 55 -25 19 -75 55 -111
79 -36 25 -67 48 -70 51 -3 3 -27 22 -55 41 -57 39 -57 39 -110 80 -22 17 -76
56 -120 87 -44 31 -84 60 -90 64 -22 18 -184 136 -242 177 -35 24 -63 48 -63
52 0 5 -6 9 -13 9 -7 0 -22 8 -33 18 -11 9 -42 32 -69 51 -28 19 -82 58 -122
88 -39 29 -74 53 -77 53 -3 0 -15 8 -25 18 -32 29 -42 35 -259 190 -26 19 -48
38 -50 43 -2 5 -8 9 -14 9 -5 0 -51 31 -101 68 -51 37 -117 86 -147 107 -30
22 -57 42 -60 45 -3 3 -52 39 -110 80 -58 41 -106 78 -108 82 -2 5 -10 8 -17
8 -7 0 -15 4 -17 8 -1 5 -30 28 -63 51 -128 89 -198 140 -204 148 -3 4 -36 28
-73 53 -38 25 -68 48 -68 52 0 5 -6 8 -14 8 -8 0 -16 3 -18 8 -1 4 -32 28 -68
54 -36 26 -69 51 -75 55 -5 4 -30 22 -55 38 -24 17 -52 37 -61 45 -37 32 -48
40 -58 40 -5 0 -11 4 -13 8 -1 5 -40 34 -86 66 -45 32 -80 62 -77 66 3 5 527
9 1165 8 637 0 1167 3 1177 6 23 7 41 36 48 77 3 17 10 39 14 48 14 26 60 167
66 203 3 18 10 37 15 43 5 6 14 33 21 60 7 27 18 61 26 75 7 14 13 32 13 41 0
9 9 36 20 60 11 24 20 54 20 65 0 12 9 41 19 65 11 24 21 56 23 70 2 15 8 33
14 40 6 8 17 40 24 72 7 31 16 57 20 57 4 0 11 21 15 48 4 26 11 52 15 57 7 8
20 50 36 110 3 10 15 45 45 130 10 28 30 91 45 140 15 50 32 99 37 110 6 11
12 33 14 49 2 17 8 33 14 37 6 3 10 10 10 15 -1 14 19 85 34 126 8 20 17 47
20 60 4 21 103 326 127 393 5 17 16 50 24 75 7 25 25 77 39 115 14 39 28 79
30 90 3 11 8 34 11 50 3 17 11 36 17 43 5 7 13 29 18 50 9 45 37 127 55 165
21 44 18 76 -8 82 -20 4 -157 3 -161 -2z"/>
<path d="M9067 10911 c-9 -20 -19 -53 -23 -73 -3 -21 -10 -38 -16 -38 -5 0 -7
-4 -3 -9 3 -5 1 -12 -4 -15 -4 -3 -11 -24 -15 -47 -4 -23 -10 -47 -14 -53 -4
-6 -7 -14 -8 -18 -1 -5 -2 -9 -4 -10 -1 -2 -3 -11 -5 -21 -4 -22 -45 -143 -61
-182 -7 -17 -15 -42 -18 -55 -3 -14 -12 -44 -21 -68 -8 -24 -17 -53 -19 -65
-3 -12 -5 -24 -6 -27 -2 -3 -2 -8 -1 -12 0 -5 -4 -8 -10 -8 -5 0 -8 -4 -4 -9
3 -5 1 -12 -5 -16 -5 -3 -10 -15 -10 -25 0 -10 -5 -31 -12 -47 -6 -15 -12 -30
-12 -33 -1 -3 -5 -11 -9 -17 -5 -7 -6 -13 -3 -13 3 0 -3 -24 -15 -52 -11 -29
-23 -66 -26 -83 -3 -16 -12 -46 -20 -65 -9 -19 -17 -45 -19 -57 -1 -12 -9 -37
-17 -55 -8 -18 -19 -46 -23 -63 -9 -37 -8 -34 -22 -68 -7 -16 -12 -34 -12 -40
0 -7 -16 -57 -36 -112 -19 -55 -39 -117 -43 -137 -5 -21 -13 -44 -20 -51 -18
-22 -10 -65 14 -69 11 -2 912 -3 2002 -3 1501 0 1984 -3 1987 -12 3 -6 -31
-35 -74 -63 -43 -29 -80 -55 -82 -58 -2 -4 -25 -23 -53 -41 -27 -19 -52 -37
-55 -40 -3 -4 -12 -10 -21 -16 -9 -5 -53 -37 -99 -70 -45 -33 -110 -80 -145
-105 -34 -25 -73 -53 -86 -63 -13 -9 -55 -40 -94 -68 -38 -27 -78 -56 -87 -64
-10 -8 -37 -27 -60 -42 -24 -15 -45 -31 -48 -34 -3 -4 -21 -17 -40 -30 -19
-14 -79 -57 -132 -97 -54 -39 -100 -72 -103 -72 -3 0 -13 -8 -24 -17 -10 -10
-44 -36 -76 -58 -32 -22 -63 -44 -69 -50 -6 -5 -31 -23 -56 -40 -24 -16 -51
-36 -60 -43 -44 -37 -79 -62 -87 -62 -5 0 -15 -9 -23 -20 -8 -11 -18 -20 -22
-20 -7 0 -138 -92 -193 -135 -11 -9 -39 -28 -62 -43 -49 -31 -69 -73 -51 -105
13 -24 14 -26 23 -72 3 -16 12 -39 19 -50 8 -11 17 -41 21 -65 4 -25 12 -54
18 -65 6 -11 12 -22 12 -25 11 -45 18 -69 27 -90 7 -14 12 -27 13 -30 1 -3 5
-21 9 -40 5 -19 15 -44 22 -55 8 -11 14 -33 14 -50 0 -16 6 -41 13 -55 7 -14
26 -65 41 -115 16 -49 32 -99 37 -110 4 -11 12 -36 18 -55 44 -148 54 -177 60
-190 5 -8 16 -42 26 -75 9 -33 22 -66 27 -72 6 -7 8 -13 4 -13 -3 0 3 -22 13
-50 11 -27 18 -50 16 -50 -2 0 16 -58 41 -130 24 -71 46 -137 48 -147 1 -10
10 -34 19 -53 8 -19 17 -49 20 -66 3 -17 12 -47 20 -65 8 -19 20 -55 27 -82 7
-26 17 -50 21 -53 5 -3 9 -15 9 -27 0 -12 8 -44 19 -72 10 -27 29 -84 41 -125
13 -41 31 -96 41 -122 11 -26 19 -54 19 -63 0 -9 5 -26 12 -38 7 -12 13 -26
14 -32 16 -64 61 -202 69 -207 5 -4 7 -8 4 -8 -3 0 11 -51 31 -112 34 -103 40
-113 64 -116 17 -2 28 2 32 12 3 9 10 13 15 10 5 -3 9 2 9 10 0 9 4 16 9 16
12 0 87 68 223 201 96 93 99 97 97 138 -2 22 -6 41 -10 41 -4 0 -13 26 -20 58
-7 31 -16 62 -20 67 -4 6 -12 30 -19 55 -6 25 -18 59 -26 77 -8 17 -17 46 -20
65 -4 18 -14 41 -23 52 -9 10 -14 20 -12 22 2 3 0 21 -5 42 -8 41 -8 41 -17
62 -7 17 -88 260 -92 275 -9 42 -19 72 -25 80 -4 6 -11 29 -15 53 -4 23 -11
42 -16 42 -5 0 -8 3 -7 8 3 13 -22 96 -37 124 -8 14 -15 33 -15 41 0 9 -5 28
-12 44 -15 38 -16 42 -26 90 -5 24 -14 48 -20 56 -6 7 -13 24 -15 37 -3 14
-21 72 -41 130 -20 58 -39 120 -42 139 -3 19 -12 44 -20 56 -8 12 -16 35 -17
51 -2 16 -11 44 -21 62 -9 17 -15 32 -12 32 2 0 -5 24 -16 53 -11 28 -24 75
-30 102 -5 28 -16 57 -24 66 -8 9 -12 18 -10 20 5 5 -48 166 -57 175 -7 8 13
64 23 64 5 0 19 9 32 20 12 11 86 65 163 120 77 55 151 109 163 120 13 11 27
20 31 20 5 0 19 9 32 21 13 11 34 29 47 40 12 10 24 19 26 19 8 0 167 115 229
165 7 6 35 26 62 45 28 19 52 38 53 42 2 4 8 8 14 8 5 0 16 6 23 13 29 25 44
37 49 37 3 0 61 42 130 93 126 93 182 134 381 277 148 107 141 102 215 157 36
26 106 77 155 113 50 35 91 68 93 72 2 4 8 8 14 8 5 0 29 16 52 35 24 19 48
35 54 35 6 0 12 4 14 8 2 5 30 28 63 53 85 62 86 64 81 136 -4 59 -11 94 -51
263 -20 85 -24 100 -30 129 -2 14 -9 29 -15 35 -7 7 -587 11 -1907 11 -1886 0
-1896 0 -1903 20 -5 11 -14 34 -21 50 -7 17 -14 40 -15 53 -2 12 -10 37 -19
54 -8 18 -18 45 -21 61 -2 16 -11 41 -18 56 -8 14 -17 42 -20 61 -8 42 -9 47
-25 85 -7 17 -15 44 -18 60 -3 17 -10 33 -16 37 -7 4 -8 8 -3 8 5 0 4 6 -2 13
-5 6 -12 26 -15 42 -3 17 -12 46 -21 66 -8 20 -17 47 -20 60 -2 13 -10 38 -17
54 -7 17 -14 41 -16 54 -2 13 -10 36 -18 50 -7 15 -17 45 -20 66 -4 22 -12 46
-18 53 -6 8 -13 24 -15 35 -5 30 -7 38 -20 68 -6 15 -14 44 -18 65 -14 82 -48
96 -77 35z"/>
<path d="M4082 9557 c-6 -7 -13 -34 -17 -62 -4 -27 -10 -54 -13 -60 -9 -15
-16 -49 -26 -130 -3 -22 -10 -54 -16 -70 -7 -17 -14 -69 -17 -117 -4 -81 -3
-88 18 -105 12 -10 30 -26 41 -35 10 -10 25 -18 33 -18 8 0 15 -4 15 -9 0 -6
26 -27 58 -48 31 -21 62 -42 68 -48 6 -5 22 -17 34 -25 13 -8 32 -23 42 -32
10 -10 20 -18 23 -18 10 0 95 -64 95 -72 0 -4 5 -8 11 -8 6 0 52 -31 103 -68
50 -37 116 -85 146 -107 30 -22 57 -43 58 -47 2 -5 8 -8 13 -8 5 0 53 -33 107
-73 53 -40 113 -84 132 -97 19 -13 37 -27 40 -31 3 -3 23 -17 45 -31 22 -14
54 -37 70 -52 17 -14 35 -26 40 -26 6 0 17 -9 25 -20 8 -11 20 -20 27 -20 7 0
18 -9 25 -20 7 -11 17 -20 23 -20 8 0 86 -55 140 -97 6 -5 42 -31 80 -58 39
-27 75 -53 80 -57 6 -5 35 -26 65 -48 30 -22 60 -43 65 -47 6 -5 32 -24 60
-43 27 -19 55 -40 62 -47 7 -6 35 -26 62 -44 48 -30 81 -82 61 -94 -8 -5 -26
-83 -22 -97 1 -5 -2 -8 -7 -8 -8 0 -22 -41 -23 -67 0 -5 -9 -25 -19 -45 -10
-21 -19 -46 -19 -56 0 -11 -9 -39 -19 -63 -11 -24 -21 -57 -24 -74 -2 -16 -11
-47 -20 -67 -10 -21 -17 -44 -17 -51 0 -8 -7 -27 -15 -44 -8 -16 -16 -38 -18
-49 -1 -10 -6 -25 -10 -31 -5 -7 -6 -13 -2 -13 3 0 -1 -13 -9 -29 -8 -15 -18
-41 -21 -57 -7 -34 -10 -43 -18 -64 -12 -30 -59 -173 -62 -189 -2 -9 -4 -17
-5 -18 -2 -2 -3 -6 -4 -10 -1 -5 -5 -14 -10 -21 -4 -7 -10 -28 -13 -45 -3 -18
-11 -45 -18 -62 -7 -16 -16 -42 -19 -57 -3 -15 -11 -40 -18 -55 -6 -15 -12
-30 -12 -33 -1 -3 -5 -11 -9 -17 -5 -7 -6 -13 -3 -13 3 0 -3 -23 -14 -50 -11
-28 -22 -64 -25 -81 -3 -17 -12 -43 -19 -58 -8 -14 -16 -42 -19 -60 -3 -19
-12 -48 -20 -65 -19 -42 -45 -120 -61 -183 -7 -29 -18 -58 -23 -65 -6 -7 -10
-20 -10 -28 0 -15 -38 -137 -53 -170 -3 -8 -19 -55 -34 -105 -15 -49 -43 -135
-62 -190 -64 -185 -65 -173 38 -273 98 -95 130 -123 182 -166 21 -17 49 -41
61 -53 33 -31 64 -32 95 -3 14 14 84 66 154 115 70 50 133 95 139 100 36 30
87 65 96 65 6 0 11 4 11 8 0 5 26 26 58 48 31 21 59 41 62 44 15 16 192 140
200 140 6 0 10 4 10 9 0 4 19 21 43 37 23 16 47 32 52 37 50 38 91 68 140 102
31 22 89 64 128 93 138 100 267 193 343 247 31 22 62 45 68 50 24 22 85 65 91
65 4 0 14 7 22 16 15 14 150 113 191 139 8 6 22 16 31 23 15 13 45 34 207 152
41 30 98 72 124 93 27 20 52 37 55 37 2 0 37 25 77 56 40 31 80 59 88 62 8 3
20 11 27 16 6 6 22 19 35 29 13 9 37 28 54 42 18 14 35 25 38 25 3 0 14 7 24
16 9 8 42 33 72 55 30 21 64 45 75 53 11 8 60 44 108 80 49 36 93 66 97 66 5
0 13 6 17 13 15 24 92 67 108 61 9 -4 26 -15 38 -25 12 -10 78 -59 147 -108
163 -117 350 -253 364 -266 7 -5 19 -14 28 -20 63 -39 128 -88 128 -96 0 -5 5
-9 10 -9 12 0 161 -108 172 -124 4 -6 8 -8 8 -4 0 5 10 -1 23 -11 73 -63 131
-100 142 -91 15 12 9 74 -9 103 -8 12 -17 40 -22 62 -9 47 -7 42 -22 78 -7 15
-14 38 -16 51 -2 14 -10 35 -17 48 -7 12 -15 34 -17 48 -2 14 -10 38 -18 54
-8 17 -16 42 -19 56 -5 28 -50 172 -64 205 -5 11 -21 61 -36 110 -15 50 -33
106 -40 125 -11 29 -24 74 -29 100 -1 3 -6 12 -11 20 -5 8 -11 26 -13 40 -2
13 -11 45 -21 70 -10 25 -28 79 -41 120 -12 41 -28 91 -35 110 -16 42 -42 122
-56 170 -5 19 -16 51 -24 70 -7 19 -16 51 -20 72 -10 63 -37 60 -131 -14 -34
-26 -67 -48 -73 -48 -6 0 -16 -9 -23 -20 -7 -11 -16 -20 -21 -20 -11 0 -70
-43 -80 -57 -4 -7 -13 -13 -19 -13 -5 0 -32 -18 -58 -40 -26 -22 -51 -40 -54
-40 -9 0 -90 -62 -94 -72 -2 -5 -10 -8 -18 -8 -8 0 -17 -6 -20 -14 -3 -8 -19
-20 -35 -26 -16 -7 -29 -15 -29 -19 0 -3 -18 -17 -40 -31 -22 -14 -40 -28 -40
-32 0 -5 -7 -8 -15 -8 -8 0 -15 -4 -15 -10 0 -5 -4 -10 -10 -10 -5 0 -21 -10
-34 -21 -14 -12 -54 -43 -90 -68 -171 -121 -271 -195 -274 -203 -2 -4 -9 -8
-16 -8 -6 0 -26 -12 -43 -27 -17 -16 -54 -44 -83 -63 -28 -19 -61 -43 -73 -52
-12 -10 -26 -21 -32 -25 -5 -5 -41 -30 -80 -58 -38 -27 -73 -54 -77 -59 -4 -6
-8 -8 -8 -3 0 4 -10 -2 -22 -13 -43 -40 -53 -47 -70 -53 -10 -4 -18 -11 -18
-17 0 -5 -5 -10 -10 -10 -6 0 -39 -21 -74 -47 -35 -27 -74 -55 -86 -63 -12 -8
-47 -33 -76 -55 -30 -22 -79 -58 -110 -80 -31 -22 -65 -48 -75 -58 -10 -9 -24
-18 -31 -20 -6 -1 -19 -9 -28 -17 -9 -8 -28 -23 -41 -32 -13 -9 -33 -24 -44
-33 -11 -8 -60 -44 -110 -80 -49 -36 -98 -72 -108 -80 -9 -8 -20 -15 -23 -15
-3 0 -20 -11 -38 -25 -38 -31 -33 -27 -126 -94 -186 -135 -295 -217 -298 -223
-2 -5 -8 -8 -14 -8 -6 0 -24 -11 -42 -25 -47 -38 -47 -38 -101 -75 -27 -18
-52 -36 -55 -39 -13 -15 -80 -61 -88 -61 -18 0 -20 24 -5 54 8 15 17 40 19 55
3 14 11 38 19 53 7 15 17 42 21 60 10 43 9 39 23 73 7 17 15 44 18 60 3 17 11
44 19 60 8 17 17 41 19 53 3 12 7 31 10 43 2 12 9 27 14 33 6 7 13 30 17 51 3
21 12 49 21 61 8 12 16 39 19 59 2 20 11 50 19 65 8 16 15 37 15 47 0 10 9 37
20 60 10 23 21 55 23 70 3 15 11 44 19 63 19 45 49 135 54 168 3 13 12 38 20
53 8 16 13 29 10 29 -2 0 5 24 16 53 11 28 26 75 35 102 8 28 21 70 28 95 8
25 21 64 30 88 8 24 17 51 18 60 2 9 8 27 15 38 6 12 14 36 17 54 3 18 12 45
21 61 8 16 17 49 21 74 3 25 10 45 16 45 6 0 7 3 4 7 -4 3 -3 11 2 17 6 7 12
25 15 41 3 17 12 46 20 65 17 40 45 125 53 158 7 27 -7 44 -77 95 -30 23 -56
44 -58 49 -2 4 -10 8 -18 8 -8 0 -14 5 -14 10 0 6 -4 10 -10 10 -5 0 -18 6
-27 14 -28 23 -101 76 -178 131 -38 27 -75 54 -82 60 -34 28 -43 35 -47 35 -3
0 -14 7 -23 15 -10 8 -58 44 -108 79 -49 36 -99 73 -110 82 -11 8 -32 23 -47
32 -16 9 -28 20 -28 24 0 4 -7 8 -15 8 -8 0 -15 3 -15 8 0 4 -8 12 -19 17 -10
6 -55 37 -99 70 -44 33 -90 67 -102 75 -13 8 -28 20 -34 25 -6 6 -37 28 -68
49 -32 21 -58 42 -58 47 0 5 -5 9 -11 9 -12 0 -76 46 -101 73 -9 10 -20 18
-25 18 -9 0 -32 15 -104 72 -27 20 -53 37 -59 37 -5 0 -10 3 -10 8 -1 4 -30
27 -66 52 -36 25 -95 68 -133 95 -37 28 -95 70 -130 95 -35 25 -101 73 -148
108 -46 34 -88 62 -93 62 -6 0 -15 9 -22 20 -7 11 -18 20 -25 20 -6 0 -13 3
-15 8 -1 4 -29 25 -60 46 -32 22 -58 43 -58 48 0 4 -5 8 -11 8 -10 0 -78 47
-89 62 -3 4 -22 14 -42 22 -28 12 -38 13 -46 3z"/>
<path d="M9316 8743 c-15 -4 -17 -11 -11 -36 11 -55 13 -61 25 -92 7 -16 16
-43 20 -60 5 -16 24 -75 44 -130 19 -56 37 -112 39 -125 3 -14 11 -38 18 -55
7 -16 14 -41 16 -54 2 -13 10 -36 17 -50 8 -14 17 -42 21 -61 4 -19 13 -48 20
-65 18 -42 58 -166 61 -190 1 -11 9 -33 18 -50 9 -16 16 -38 16 -48 0 -10 8
-37 19 -60 10 -23 22 -58 26 -77 4 -19 11 -39 15 -45 7 -9 23 -67 24 -90 1 -5
7 -21 15 -34 7 -14 16 -41 18 -60 3 -20 12 -45 19 -56 8 -11 14 -27 14 -36 0
-10 9 -38 19 -62 11 -25 22 -58 24 -74 3 -15 12 -46 21 -68 8 -22 17 -51 20
-65 2 -14 11 -38 20 -55 9 -16 16 -39 16 -51 0 -11 3 -24 8 -28 4 -4 7 -11 8
-14 0 -4 6 -20 13 -36 6 -16 13 -41 15 -55 2 -14 11 -43 20 -65 10 -21 15 -40
12 -43 -3 -3 3 -22 13 -42 15 -28 42 -107 57 -163 1 -5 2 -9 4 -10 1 -2 3 -10
5 -18 2 -8 11 -37 20 -65 23 -68 32 -95 67 -205 17 -52 55 -169 85 -260 30
-91 56 -172 58 -180 3 -15 20 -65 56 -168 11 -30 19 -60 19 -67 0 -7 8 -30 17
-51 9 -22 18 -46 19 -54 1 -8 11 -39 23 -68 11 -29 21 -64 21 -77 0 -13 4 -26
9 -29 5 -3 15 -30 22 -58 6 -29 16 -60 20 -68 15 -26 50 -142 45 -147 -2 -2
-28 12 -58 33 -75 53 -232 167 -238 174 -3 3 -25 19 -50 35 -25 16 -49 36 -53
42 -4 7 -14 13 -22 13 -7 0 -15 4 -17 8 -1 5 -25 23 -53 42 -27 19 -56 40 -63
47 -8 7 -23 18 -34 24 -11 6 -27 17 -36 24 -36 30 -106 81 -128 93 -13 7 -24
17 -24 23 0 5 -5 9 -10 9 -6 0 -33 17 -60 38 -27 20 -65 48 -84 62 -20 14 -46
33 -58 42 -13 9 -84 61 -158 114 -74 54 -137 100 -140 103 -3 4 -34 26 -70 51
-36 24 -74 52 -84 62 -11 10 -23 18 -27 18 -5 0 -60 39 -96 70 -7 6 -14 9 -16
8 -2 -2 -25 15 -53 37 -64 53 -162 125 -169 125 -3 0 -14 8 -24 18 -49 44 -81
62 -108 62 -18 0 -144 -86 -151 -102 -2 -5 -10 -8 -18 -8 -8 0 -14 -4 -14 -8
0 -4 -15 -16 -32 -27 -18 -10 -54 -35 -79 -54 -25 -20 -56 -44 -70 -53 -13
-10 -48 -36 -78 -58 -30 -22 -57 -40 -61 -40 -3 0 -24 -15 -45 -34 -21 -19
-50 -40 -64 -48 -14 -7 -32 -18 -39 -25 -7 -6 -52 -40 -100 -74 -48 -35 -89
-66 -92 -69 -3 -4 -27 -22 -55 -40 -27 -19 -54 -38 -60 -43 -15 -12 -355 -260
-373 -272 -8 -5 -52 -37 -98 -70 -45 -33 -92 -67 -104 -75 -12 -8 -28 -20 -34
-26 -6 -6 -33 -26 -61 -45 -60 -41 -111 -78 -187 -136 -31 -24 -61 -43 -66
-43 -6 0 -12 -4 -14 -8 -3 -8 -65 -54 -303 -226 -88 -63 -164 -119 -170 -123
-5 -5 -29 -22 -52 -38 -24 -17 -43 -38 -43 -47 0 -21 47 -56 145 -106 17 -9
32 -18 35 -22 3 -4 34 -21 70 -39 36 -18 94 -48 130 -67 36 -18 74 -34 85 -34
20 0 82 37 119 72 11 10 23 18 26 18 4 0 16 8 28 18 11 9 46 35 77 57 95 68
269 195 288 210 9 8 20 15 23 15 3 0 18 10 33 23 15 12 38 30 52 40 13 9 70
51 127 92 56 41 107 75 112 75 6 0 10 4 10 8 0 5 26 26 57 48 32 21 65 44 73
51 23 18 349 256 374 273 24 16 234 169 251 183 42 33 131 97 138 97 4 0 16 8
26 18 26 22 34 29 113 85 47 33 72 45 85 40 17 -7 113 -71 123 -83 3 -4 35
-27 72 -53 37 -25 87 -61 111 -79 24 -18 61 -46 83 -61 21 -15 62 -45 90 -65
27 -20 63 -46 78 -57 16 -11 33 -24 40 -30 6 -5 37 -27 69 -49 31 -21 57 -42
57 -45 0 -4 15 -15 33 -24 17 -8 43 -25 57 -36 56 -46 130 -101 135 -101 5 0
81 -56 95 -70 3 -3 12 -9 21 -15 10 -5 54 -37 99 -70 45 -33 89 -64 99 -70 9
-5 18 -13 21 -17 3 -3 30 -23 60 -44 30 -20 57 -40 60 -43 3 -3 28 -22 55 -41
28 -19 52 -38 53 -42 2 -4 9 -8 16 -8 6 0 18 -9 26 -20 8 -11 18 -20 23 -20 4
0 43 -26 85 -57 42 -32 82 -60 87 -63 6 -3 46 -32 90 -64 86 -64 151 -112 228
-167 27 -19 57 -41 66 -49 45 -39 76 -50 114 -38 20 6 37 15 37 20 0 5 4 7 9
3 5 -3 13 0 17 6 3 6 21 18 38 25 17 8 48 25 68 37 21 12 79 46 129 76 58 34
94 62 100 78 9 24 -14 110 -62 237 -11 27 -19 57 -19 67 0 11 -9 38 -19 62
-11 23 -21 53 -24 67 -6 30 -34 112 -55 160 -8 19 -17 51 -19 70 -3 19 -11 44
-18 56 -8 12 -17 39 -21 60 -3 21 -10 44 -14 49 -5 6 -14 30 -21 55 -7 25 -13
47 -14 50 -1 3 -7 18 -13 33 -7 16 -12 35 -12 44 0 8 -6 29 -14 46 -13 31 -55
157 -61 187 -2 8 -9 29 -16 45 -7 17 -13 32 -13 35 -1 3 -5 11 -9 18 -5 6 -6
12 -3 12 3 0 -3 24 -13 53 -11 28 -23 68 -26 87 -4 19 -11 40 -15 45 -6 8 -28
75 -35 105 0 3 -6 14 -12 25 -6 11 -13 34 -16 51 -3 17 -10 42 -17 54 -7 13
-15 40 -17 59 -3 20 -12 49 -20 64 -8 16 -16 38 -18 48 -2 11 -22 75 -45 142
-66 200 -70 211 -74 232 -3 11 -11 36 -20 56 -8 20 -17 48 -20 63 -3 15 -9 33
-14 39 -5 7 -13 30 -17 52 -3 21 -13 51 -21 66 -7 15 -16 41 -19 59 -3 18 -12
44 -19 59 -8 14 -16 40 -19 56 -3 17 -11 46 -19 65 -18 41 -47 127 -53 155 -3
11 -7 31 -10 44 -2 12 -9 29 -16 37 -6 8 -8 14 -3 14 4 0 3 5 -4 12 -7 7 -12
20 -12 29 0 10 -5 30 -12 46 -6 15 -12 30 -13 33 -1 3 -5 12 -8 20 -4 8 -8 24
-10 35 -2 11 -9 31 -14 45 -6 14 -14 41 -19 60 -4 19 -8 37 -9 40 -1 3 -9 22
-18 44 -9 21 -17 45 -17 53 0 8 -5 24 -12 36 -34 63 -27 87 33 127 12 8 30 22
40 32 9 9 26 19 38 23 12 3 21 10 21 15 0 4 22 22 50 40 42 27 64 43 135 97 6
5 22 16 36 25 14 9 32 23 40 30 8 7 25 21 39 30 14 10 45 32 71 50 165 119
217 157 260 188 26 19 89 64 139 100 142 101 139 97 116 115 -17 13 -138 14
-910 14 -490 -1 -899 -4 -910 -6z"/>
</g>
</svg>
