<?xml version="1.0" encoding="UTF-8" standalone="no"?>
<!-- Created with Inkscape (http://www.inkscape.org/) -->

<svg
   xmlns:dc="http://purl.org/dc/elements/1.1/"
   xmlns:cc="http://creativecommons.org/ns#"
   xmlns:rdf="http://www.w3.org/1999/02/22-rdf-syntax-ns#"
   xmlns:svg="http://www.w3.org/2000/svg"
   xmlns="http://www.w3.org/2000/svg"
   xmlns:sodipodi="http://sodipodi.sourceforge.net/DTD/sodipodi-0.dtd"
   xmlns:inkscape="http://www.inkscape.org/namespaces/inkscape"
   width="1026.121"
   height="1151.8051"
   viewBox="0 0 1026.1209 1151.805"
   id="svg4181"
   version="1.1"
   inkscape:version="0.91 r13725"
   sodipodi:docname="Walmart_Star.svg">
  <defs
     id="defs4183">
    <sodipodi:namedview
       id="namedview18"
       inkscape:cy="39.4548"
       inkscape:cx="823.14446"
       showgrid="false"
       fit-margin-top="0"
       objecttolerance="10"
       fit-margin-left="0"
       inkscape:zoom="8.8533333"
       gridtolerance="10"
       guidetolerance="10"
       bordercolor="#666666"
       pagecolor="#ffffff"
       borderopacity="1"
       inkscape:current-layer="svg2"
       inkscape:window-maximized="1"
       inkscape:window-y="-8"
       inkscape:window-x="-8"
       fit-margin-bottom="0"
       fit-margin-right="0"
       inkscape:window-height="1096"
       inkscape:pageshadow="2"
       inkscape:window-width="1920"
       inkscape:pageopacity="0" />
  </defs>
  <sodipodi:namedview
     id="base"
     pagecolor="#ffffff"
     bordercolor="#666666"
     borderopacity="1.0"
     inkscape:pageopacity="0.0"
     inkscape:pageshadow="2"
     inkscape:zoom="0.25"
     inkscape:cx="-353.01183"
     inkscape:cy="772.96988"
     inkscape:document-units="px"
     inkscape:current-layer="layer1"
     showgrid="false"
     units="px"
     inkscape:window-width="1366"
     inkscape:window-height="705"
     inkscape:window-x="-8"
     inkscape:window-y="-8"
     inkscape:window-maximized="1" />
  <metadata
     id="metadata4186">
    <rdf:RDF>
      <cc:Work
         rdf:about="">
        <dc:format>image/svg+xml</dc:format>
        <dc:type
           rdf:resource="http://purl.org/dc/dcmitype/StillImage" />
        <dc:title></dc:title>
      </cc:Work>
    </rdf:RDF>
  </metadata>
  <g
     inkscape:label="Layer 1"
     inkscape:groupmode="layer"
     id="layer1"
     transform="translate(0,99.442847)">
    <g
       id="g4820"
       transform="matrix(5.3763702,0,0,5.3763702,-1082.2679,-4720.5975)">
      <path
         style="fill:#ffc220;fill-opacity:1"
         id="path2974"
         inkscape:connector-curvature="0"
         class="st0"
         d="m 296.70455,931.65059 c 5.01953,0 9.15207,-2.61109 9.71017,-5.98291 l 4.95639,-56.04828 c 0,-5.54108 -6.49117,-10.08888 -14.64996,-10.08888 -8.15217,0 -14.63668,4.5478 -14.63668,10.08888 l 4.95308,56.04828 c 0.54481,3.37182 4.67735,5.98291 9.6836,5.98291 l -0.0166,0" />
      <path
         style="fill:#ffc220;fill-opacity:1"
         id="path2976"
         inkscape:connector-curvature="0"
         class="st0"
         d="m 266.41131,949.15781 c 2.51808,-4.34184 2.32871,-9.22185 -0.32555,-11.39111 l -46.06934,-32.31631 c -4.79031,-2.77387 -11.97246,0.56473 -16.04853,7.63393 -4.08938,7.05923 -3.36518,14.94563 1.41185,17.71916 l 51.01248,23.75256 c 3.1891,1.1823 7.53758,-1.09293 10.03574,-5.43145 l -0.0166,0.0332" />
      <path
         style="fill:#ffc220;fill-opacity:1"
         id="path2978"
         inkscape:connector-curvature="0"
         class="st0"
         d="m 327.02435,949.12758 c 2.51476,4.33885 6.83997,6.61408 10.0324,5.43145 l 51.01247,-23.75223 c 4.80692,-2.77353 5.49125,-10.66026 1.43842,-17.71949 -4.09601,-7.06222 -11.29144,-10.4078 -16.06847,-7.6336 l -46.07269,32.31632 c -2.63434,2.16593 -2.83033,7.04893 -0.32556,11.39077 l -0.0199,-0.0332" />
      <path
         style="fill:#ffc220;fill-opacity:1"
         id="path2980"
         inkscape:connector-curvature="0"
         class="st0"
         d="m 296.70455,1001.6648 c 5.01953,0 9.15207,2.5879 9.71017,5.963 l 4.95639,56.042 c 0,5.5577 -6.49117,10.0955 -14.64996,10.0955 -8.15217,0 -14.63668,-4.5378 -14.63668,-10.0955 l 4.95308,-56.042 c 0.54481,-3.3751 4.67735,-5.963 9.6836,-5.963 l -0.0166,0" />
      <path
         style="fill:#ffc220;fill-opacity:1"
         id="path2982"
         inkscape:connector-curvature="0"
         class="st0"
         d="m 327.02435,984.15464 c 2.51476,-4.35214 6.83997,-6.60744 10.0324,-5.41152 l 51.01247,23.73558 c 4.80692,2.7772 5.49125,10.6703 1.43842,17.7361 -4.09601,7.0393 -11.29144,10.3945 -16.06847,7.624 l -46.07269,-32.28641 c -2.63434,-2.18255 -2.83033,-7.0692 -0.32556,-11.40738 l -0.0199,0" />
      <path
         style="fill:#ffc220;fill-opacity:1"
         id="path2984"
         inkscape:connector-curvature="0"
         class="st0"
         d="m 266.41131,984.148 c 2.51808,4.33553 2.32871,9.22184 -0.32555,11.40771 l -46.06934,32.28639 c -4.79031,2.7706 -11.97246,-0.5846 -16.04853,-7.6243 -4.08938,-7.0655 -3.36518,-14.9589 1.41185,-17.7361 l 51.01248,-23.73559 c 3.1891,-1.19592 7.53758,1.05971 10.03574,5.41185 l -0.0166,0" />
    </g>
  </g>
</svg>
